<?xml version="1.0" encoding="UTF-8"?>
<svg xmlns="http://www.w3.org/2000/svg" xmlns:xlink="http://www.w3.org/1999/xlink" width="62px" height="80px" viewBox="0 0 62 79" version="1.1">
<g id="surface1">
<path style=" stroke:none;fill-rule:nonzero;fill:rgb(0%,0%,0%);fill-opacity:1;" d="M 6.824219 0.289062 C 6.082031 0.710938 6.242188 1.84375 7.222656 2.84375 L 8.066406 3.738281 L 6.769531 4.871094 C 5.5 6.003906 5.476562 6.03125 5.820312 6.847656 C 6.109375 7.585938 6.109375 7.742188 5.632812 8.375 C 5.34375 8.742188 4.707031 9.164062 4.207031 9.296875 C 3.703125 9.425781 3.148438 9.636719 2.988281 9.796875 C 2.566406 10.136719 2.539062 11.21875 2.9375 11.480469 C 3.09375 11.585938 2.804688 11.902344 2.195312 12.246094 C 1.003906 12.957031 0.210938 14.195312 0.183594 15.351562 C 0.183594 15.828125 0.476562 16.957031 0.847656 17.90625 C 1.242188 18.855469 1.984375 21.328125 2.511719 23.4375 C 3.648438 28.019531 4.390625 30.019531 6.242188 33.757812 C 12.484375 46.214844 20.949219 52.585938 33.460938 54.246094 C 39.648438 55.0625 48.429688 54.800781 52.238281 53.640625 C 53.269531 53.351562 54.804688 53.0625 55.679688 53.035156 C 56.550781 53.007812 57.792969 52.824219 58.457031 52.667969 C 59.117188 52.480469 60.09375 52.21875 60.652344 52.085938 C 61.761719 51.824219 62.027344 51.429688 61.789062 50.429688 C 61.628906 49.796875 61.523438 49.769531 59.621094 49.769531 C 58.535156 49.769531 57.398438 49.664062 57.132812 49.507812 C 56.816406 49.324219 56.417969 49.375 55.835938 49.664062 C 55.203125 49.980469 54.832031 50.007812 54.039062 49.796875 C 53.484375 49.636719 52.425781 49.507812 51.683594 49.507812 C 50.945312 49.507812 50.257812 49.425781 50.175781 49.347656 C 50.070312 49.242188 50.363281 48.714844 50.785156 48.191406 C 51.234375 47.636719 51.578125 47.003906 51.578125 46.792969 C 51.578125 45.792969 50.257812 45.925781 48.933594 47.03125 C 48.296875 47.585938 48.191406 47.796875 48.457031 47.980469 C 48.722656 48.191406 48.695312 48.214844 48.378906 48.109375 C 48.113281 48.03125 47.691406 48.242188 47.320312 48.613281 C 46.605469 49.375 46.15625 49.324219 42.320312 48.136719 C 37.507812 46.636719 33.117188 43.84375 30.207031 40.472656 C 26.53125 36.234375 25.5 34.574219 24.359375 31.203125 C 23.304688 28.046875 22.828125 25.121094 22.378906 18.960938 C 21.875 12.246094 22.007812 11.957031 25.472656 13.167969 C 27.136719 13.746094 27.480469 13.796875 28.011719 13.457031 C 28.988281 12.824219 26.953125 11.324219 23.410156 10.113281 C 22.246094 9.71875 20.976562 9.164062 20.578125 8.902344 C 20.183594 8.636719 19.441406 8.242188 18.9375 8.03125 C 18.410156 7.792969 17.988281 7.480469 17.988281 7.269531 C 17.988281 6.871094 16.902344 6.320312 16.054688 6.292969 C 15.738281 6.292969 15.050781 6.160156 14.546875 5.976562 C 13.78125 5.714844 13.59375 5.503906 13.488281 4.738281 L 13.359375 3.816406 L 11.507812 3.6875 L 9.65625 3.554688 L 9.734375 2.1875 C 9.785156 1.027344 9.707031 0.761719 9.203125 0.421875 C 8.542969 -0.0507812 7.484375 -0.105469 6.824219 0.289062 Z M 8.675781 0.578125 C 9.285156 1.183594 9.019531 1.5 7.933594 1.476562 C 6.746094 1.449219 6.71875 1.421875 7.328125 0.738281 C 7.828125 0.183594 8.226562 0.132812 8.675781 0.578125 Z M 11.1875 4.660156 C 11.003906 4.714844 10.6875 4.714844 10.527344 4.660156 C 10.34375 4.582031 10.472656 4.53125 10.84375 4.53125 C 11.214844 4.53125 11.347656 4.582031 11.1875 4.660156 Z M 12.617188 6.609375 C 13.09375 6.792969 13.144531 6.953125 12.988281 7.53125 C 12.882812 7.925781 12.667969 8.296875 12.539062 8.347656 C 12.113281 8.480469 10.84375 7.109375 10.84375 6.53125 C 10.84375 6.003906 11.03125 6.003906 12.617188 6.609375 Z M 10.710938 7.636719 C 10.816406 7.792969 10.449219 7.898438 9.8125 7.898438 C 9.257812 7.898438 8.542969 7.953125 8.277344 8.03125 C 8.015625 8.109375 8.171875 8.003906 8.597656 7.792969 C 9.523438 7.320312 10.472656 7.269531 10.710938 7.636719 Z M 15.5 9.085938 C 15.789062 9.980469 15.789062 10.007812 15.316406 9.585938 C 14.839844 9.164062 14.8125 9.164062 14.8125 9.847656 C 14.8125 10.953125 14.097656 11.007812 13.226562 9.980469 C 12.644531 9.320312 12.457031 9.214844 12.433594 9.53125 C 12.433594 9.925781 12.246094 9.980469 11.242188 9.847656 C 10.605469 9.742188 9.523438 9.824219 8.835938 9.980469 C 8.171875 10.164062 7.566406 10.242188 7.511719 10.191406 C 7.40625 10.085938 14.125 8.242188 14.8125 8.191406 C 15.050781 8.164062 15.339844 8.53125 15.5 9.085938 Z M 22.851562 10.429688 C 23.222656 10.796875 23.222656 10.902344 22.878906 11.585938 C 22.640625 12.035156 22.140625 12.535156 21.742188 12.71875 C 20.632812 13.296875 17.722656 13.929688 15.101562 14.195312 C 13.675781 14.351562 12.300781 14.667969 11.585938 15.011719 C 10.976562 15.324219 9.890625 15.800781 9.203125 16.089844 C 8.121094 16.511719 7.933594 16.511719 7.933594 16.195312 C 7.933594 15.746094 7.828125 15.722656 6.640625 15.957031 C 6.1875 16.0625 5.820312 16.300781 5.820312 16.484375 C 5.820312 16.878906 5.105469 16.957031 4.390625 16.695312 C 3.703125 16.433594 3.332031 15.5625 3.730469 15.117188 C 4.125 14.613281 3.886719 14.378906 3.175781 14.613281 C 2.539062 14.824219 2.117188 15.722656 2.117188 16.933594 L 2.089844 17.773438 L 1.71875 17.117188 C 0.953125 15.773438 1.507812 14.640625 3.253906 13.984375 C 4.445312 13.535156 5.027344 13.613281 5.027344 14.246094 C 5.027344 14.929688 6.664062 15.667969 7.351562 15.300781 C 7.777344 15.0625 7.777344 15.035156 7.328125 14.851562 C 7.035156 14.746094 6.902344 14.507812 7.007812 14.21875 C 7.113281 13.929688 6.984375 13.691406 6.691406 13.589844 C 6.296875 13.429688 6.269531 13.351562 6.613281 13.191406 C 6.824219 13.0625 7.484375 12.878906 8.066406 12.773438 C 8.648438 12.691406 10.5 12.191406 12.195312 11.691406 C 13.859375 11.191406 15.816406 10.71875 16.480469 10.636719 C 17.640625 10.480469 17.722656 10.507812 17.722656 11.035156 C 17.722656 11.691406 18.410156 12.0625 18.832031 11.640625 C 19.070312 11.402344 19.019531 11.191406 18.675781 10.824219 C 18.222656 10.324219 18.222656 10.296875 19.230469 10.191406 C 21.558594 9.953125 22.457031 10.007812 22.851562 10.429688 Z M 5.027344 11.058594 C 4.8125 11.191406 4.523438 11.324219 4.363281 11.324219 C 4.230469 11.324219 4.285156 11.191406 4.496094 11.058594 C 4.707031 10.929688 5.027344 10.796875 5.15625 10.796875 C 5.316406 10.796875 5.238281 10.929688 5.027344 11.058594 Z M 27.507812 12.667969 C 27.507812 12.824219 27.324219 12.824219 26.980469 12.640625 C 26.6875 12.480469 26.449219 12.246094 26.449219 12.085938 C 26.449219 11.929688 26.636719 11.929688 26.980469 12.113281 C 27.269531 12.269531 27.507812 12.507812 27.507812 12.667969 Z M 21.558594 15.089844 C 21.636719 15.5625 21.714844 16.644531 21.714844 17.511719 C 21.714844 21.726562 21.796875 23.171875 22.035156 23.171875 C 22.164062 23.171875 22.21875 23.621094 22.140625 24.226562 C 22.058594 24.804688 22.113281 25.359375 22.246094 25.4375 C 22.613281 25.648438 22.535156 26.332031 22.113281 26.332031 C 21.714844 26.332031 21.425781 26.886719 21.425781 27.597656 C 21.425781 27.941406 21.53125 27.886719 21.847656 27.4375 C 22.378906 26.675781 22.640625 26.859375 22.851562 28.230469 C 22.960938 28.863281 23.328125 30.335938 23.699219 31.546875 C 24.308594 33.546875 24.335938 33.734375 23.9375 34.128906 C 23.539062 34.523438 23.566406 34.601562 24.308594 35.050781 C 24.757812 35.3125 25.128906 35.734375 25.128906 35.945312 C 25.128906 36.183594 25.261719 36.289062 25.390625 36.207031 C 25.816406 35.945312 26.425781 36.550781 27.457031 38.183594 C 27.957031 38.972656 28.832031 40.132812 29.414062 40.738281 C 29.96875 41.371094 30.417969 42.082031 30.417969 42.34375 C 30.417969 43.421875 33.300781 45.558594 35.839844 46.347656 C 36.421875 46.53125 37.320312 47.058594 37.824219 47.558594 C 38.777344 48.453125 39.859375 48.980469 40.761719 48.980469 C 41.050781 48.980469 41.449219 49.136719 41.660156 49.324219 C 41.84375 49.507812 42.664062 49.824219 43.484375 50.007812 C 45.046875 50.347656 45.363281 50.664062 44.382812 50.902344 C 43.644531 51.113281 41.289062 50.535156 39.226562 49.664062 C 37.375 48.902344 35.574219 48.769531 34.703125 49.402344 C 34.066406 49.824219 33.910156 49.585938 34.464844 48.980469 C 34.625 48.769531 34.464844 48.847656 34.09375 49.191406 C 33.25 49.929688 33.035156 49.929688 32.242188 49.085938 C 31.898438 48.714844 31.421875 48.480469 31.183594 48.53125 C 30.417969 48.742188 29.890625 48.242188 29.996094 47.398438 C 30.101562 46.53125 30.019531 46.503906 27.824219 46.242188 C 26.132812 46.058594 24.835938 44.765625 26.34375 44.765625 C 26.847656 44.765625 27.007812 44.871094 26.875 45.160156 C 26.714844 45.609375 27.640625 46.082031 28.726562 46.082031 C 29.652344 46.082031 29.519531 45.742188 28.039062 44.265625 C 26.769531 43.003906 25.683594 42.371094 20.761719 40.160156 C 19.890625 39.761719 19.308594 39.394531 19.492188 39.316406 C 19.652344 39.261719 20.394531 39.527344 21.132812 39.921875 C 22.21875 40.472656 22.5625 40.554688 22.878906 40.289062 C 23.566406 39.710938 22.457031 38.078125 21.160156 37.789062 C 20.761719 37.710938 20.15625 37.339844 19.835938 37 L 19.230469 36.367188 L 19.945312 36.101562 C 20.894531 35.734375 20.816406 35.050781 19.679688 33.8125 C 19.175781 33.257812 18.804688 32.996094 18.886719 33.257812 C 18.964844 33.546875 19.097656 34.074219 19.175781 34.445312 L 19.308594 35.15625 L 18.964844 34.445312 C 18.199219 32.835938 16.929688 32.101562 16.929688 33.234375 C 16.902344 33.757812 16.875 33.785156 16.664062 33.390625 C 16.503906 33.152344 16.1875 33.023438 15.898438 33.101562 C 15.316406 33.257812 15.15625 33.046875 14.945312 31.835938 C 14.839844 31.308594 14.390625 30.519531 13.808594 29.941406 L 12.828125 28.941406 L 13.59375 29.230469 C 14.652344 29.625 15.078125 29.203125 14.546875 28.253906 C 13.886719 27.125 13.382812 26.964844 12.667969 27.625 L 12.035156 28.203125 L 11.957031 26.992188 C 11.875 25.964844 11.796875 25.808594 11.507812 26.070312 C 11.269531 26.28125 11.1875 26.648438 11.292969 27.148438 C 11.425781 27.808594 11.375 27.914062 10.816406 27.914062 C 10.238281 27.914062 10.261719 27.964844 11.1875 28.914062 C 11.957031 29.703125 12.085938 29.992188 11.851562 30.230469 C 11.292969 30.785156 10.898438 30.574219 10.582031 29.625 C 10.421875 29.125 10.023438 28.492188 9.707031 28.253906 C 9.363281 27.964844 9.152344 27.542969 9.203125 27.230469 C 9.257812 26.859375 9.046875 26.519531 8.597656 26.226562 C 7.960938 25.808594 7.960938 25.753906 8.359375 25.148438 C 8.859375 24.382812 9.65625 24.28125 10.023438 24.9375 C 10.183594 25.253906 10.15625 25.464844 9.867188 25.675781 C 9.390625 26.015625 9.839844 27.386719 10.449219 27.386719 C 10.738281 27.386719 10.84375 27.097656 10.84375 26.226562 C 10.84375 24.859375 10.15625 23.859375 9.179688 23.832031 C 8.808594 23.804688 8.304688 23.648438 8.09375 23.464844 C 7.589844 23.042969 7.539062 22.382812 8.015625 22.382812 C 8.199219 22.382812 8.464844 22.121094 8.597656 21.777344 C 8.753906 21.433594 9.152344 21.171875 9.574219 21.121094 C 10.738281 20.988281 11.003906 20.433594 10.449219 19.222656 C 9.890625 18.011719 10 17.800781 11.242188 17.722656 C 12.378906 17.667969 13.226562 17.222656 13.226562 16.722656 C 13.226562 16.457031 13.488281 16.328125 14.019531 16.328125 C 14.441406 16.328125 14.890625 16.140625 14.996094 15.933594 C 15.183594 15.617188 15.421875 15.589844 16.136719 15.800781 C 17.40625 16.167969 17.695312 16.117188 17.085938 15.667969 C 16.796875 15.457031 16.636719 15.21875 16.714844 15.140625 C 16.796875 15.0625 17.640625 14.824219 18.648438 14.613281 C 19.625 14.429688 20.472656 14.195312 20.550781 14.113281 C 20.871094 13.796875 21.425781 14.351562 21.558594 15.089844 Z M 9.390625 18.960938 C 9.390625 19.195312 9.097656 19.382812 8.597656 19.40625 C 7.933594 19.460938 7.882812 19.433594 8.332031 19.25 C 8.835938 19.011719 8.835938 19.011719 8.199219 18.722656 C 7.566406 18.460938 7.589844 18.460938 8.464844 18.511719 C 9.074219 18.539062 9.390625 18.695312 9.390625 18.960938 Z M 6.402344 19.539062 C 6.164062 19.777344 6.003906 19.777344 5.765625 19.539062 C 5.527344 19.300781 5.582031 19.222656 6.082031 19.222656 C 6.585938 19.222656 6.640625 19.300781 6.402344 19.539062 Z M 6.613281 22.121094 C 6.613281 22.460938 6.320312 22.460938 5.820312 22.121094 C 5.5 21.910156 5.527344 21.855469 6.03125 21.855469 C 6.347656 21.855469 6.613281 21.960938 6.613281 22.121094 Z M 4.230469 23.199219 C 4.230469 23.359375 4.125 23.382812 3.96875 23.304688 C 3.835938 23.226562 3.703125 23.015625 3.703125 22.882812 C 3.703125 22.726562 3.835938 22.699219 3.96875 22.777344 C 4.125 22.855469 4.230469 23.066406 4.230469 23.199219 Z M 6.296875 23.121094 C 6.347656 23.304688 6.242188 23.382812 5.976562 23.277344 C 5.738281 23.199219 5.554688 22.988281 5.554688 22.855469 C 5.554688 22.515625 6.164062 22.726562 6.296875 23.121094 Z M 5.6875 27.542969 C 5.738281 27.992188 6.058594 29.097656 6.425781 29.992188 C 6.902344 31.179688 6.984375 31.519531 6.664062 31.285156 C 6.296875 30.96875 4.523438 27.4375 3.941406 25.808594 C 3.703125 25.175781 3.730469 25.199219 4.390625 25.9375 C 4.867188 26.492188 5.027344 26.570312 4.894531 26.203125 C 4.445312 24.964844 4.523438 24.699219 5.050781 25.648438 C 5.371094 26.226562 5.660156 27.070312 5.6875 27.542969 Z M 9.179688 28.597656 C 9.097656 28.675781 8.859375 28.703125 8.675781 28.625 C 8.464844 28.546875 8.542969 28.464844 8.835938 28.464844 C 9.125 28.441406 9.285156 28.519531 9.179688 28.597656 Z M 13.859375 30.703125 C 13.9375 30.941406 14.019531 31.335938 14.019531 31.574219 C 14.019531 31.835938 14.390625 32.496094 14.8125 33.046875 C 15.261719 33.601562 15.554688 34.101562 15.472656 34.179688 C 15.261719 34.390625 11.585938 32.601562 11.1875 32.125 C 10.605469 31.414062 10.765625 30.996094 11.585938 31.179688 C 13.753906 31.730469 13.78125 31.730469 13.488281 30.96875 C 13.359375 30.597656 13.332031 30.285156 13.464844 30.285156 C 13.59375 30.285156 13.78125 30.46875 13.859375 30.703125 Z M 6.902344 32.785156 C 7.300781 33.679688 8.066406 34.917969 8.597656 35.550781 C 9.125 36.15625 9.65625 36.894531 9.785156 37.128906 C 9.917969 37.394531 10.289062 37.894531 10.605469 38.234375 C 10.925781 38.578125 11.375 39.394531 11.613281 40.054688 C 11.902344 40.789062 12.300781 41.34375 12.75 41.554688 C 13.144531 41.738281 13.703125 42.292969 14.019531 42.792969 C 14.335938 43.292969 14.707031 43.714844 14.839844 43.714844 C 14.996094 43.714844 15.394531 44.054688 15.765625 44.476562 C 16.109375 44.898438 16.953125 45.558594 17.589844 45.953125 C 18.25 46.320312 18.78125 46.792969 18.78125 47.003906 C 18.78125 47.214844 18.726562 47.398438 18.648438 47.398438 C 17.378906 47.398438 12.511719 42.898438 11.242188 40.527344 C 10.816406 39.738281 9.65625 37.867188 8.648438 36.417969 C 6.902344 33.8125 5.238281 30.597656 5.84375 30.96875 C 6.003906 31.074219 6.480469 31.890625 6.902344 32.785156 Z M 16.398438 35.390625 C 17.273438 35.707031 17.273438 35.734375 16.742188 35.917969 C 16.109375 36.128906 15.921875 36.601562 16.480469 36.601562 C 16.714844 36.601562 16.714844 36.65625 16.453125 36.839844 C 16.1875 37 16.292969 37.261719 16.929688 37.945312 C 17.640625 38.738281 18.621094 40.289062 18.382812 40.289062 C 18.171875 40.289062 14.285156 38.128906 14.285156 38 C 14.285156 37.945312 14.546875 37.945312 14.890625 38.050781 C 15.472656 38.210938 15.472656 38.210938 14.945312 37.734375 C 13.914062 36.789062 13.703125 36.15625 14.203125 35.550781 C 14.734375 34.945312 15.101562 34.917969 16.398438 35.390625 Z M 20.605469 41.238281 C 20.976562 41.554688 20.101562 41.265625 19.679688 40.921875 C 19.203125 40.554688 19.203125 40.554688 19.835938 40.84375 C 20.207031 41 20.550781 41.183594 20.605469 41.238281 Z M 18.621094 41.871094 C 20.445312 42.449219 20.761719 42.765625 19.757812 43.027344 C 18.566406 43.316406 16.109375 42.292969 16.503906 41.660156 C 16.742188 41.265625 16.558594 41.238281 18.621094 41.871094 Z M 22.113281 42.449219 C 22.984375 42.84375 23.25 43.054688 22.933594 43.132812 C 22.535156 43.214844 20.632812 42.265625 20.632812 41.976562 C 20.632812 41.789062 20.761719 41.84375 22.113281 42.449219 Z M 23.699219 42.105469 C 23.832031 42.238281 24.175781 42.398438 24.464844 42.476562 C 24.96875 42.582031 24.96875 42.605469 24.441406 42.632812 C 24.121094 42.632812 23.460938 42.476562 22.984375 42.265625 C 22.140625 41.921875 22.140625 41.894531 22.773438 41.871094 C 23.144531 41.871094 23.539062 41.976562 23.699219 42.105469 Z M 23.539062 43.976562 C 23.753906 44.109375 23.832031 44.238281 23.671875 44.238281 C 23.539062 44.238281 23.222656 44.109375 23.011719 43.976562 C 22.800781 43.84375 22.746094 43.714844 22.878906 43.714844 C 23.039062 43.714844 23.328125 43.84375 23.539062 43.976562 Z M 23.539062 45.425781 C 23.964844 45.660156 24.042969 45.792969 23.777344 45.820312 C 23.566406 45.820312 23.144531 45.636719 22.851562 45.425781 C 22.21875 44.949219 22.667969 44.925781 23.539062 45.425781 Z M 25.789062 47.398438 C 25.867188 47.53125 25.84375 47.664062 25.683594 47.664062 C 25.550781 47.664062 25.339844 47.53125 25.261719 47.398438 C 25.179688 47.242188 25.207031 47.136719 25.367188 47.136719 C 25.5 47.136719 25.710938 47.242188 25.789062 47.398438 Z M 29.28125 47.820312 C 29.203125 47.898438 28.964844 47.925781 28.777344 47.847656 C 28.566406 47.769531 28.644531 47.691406 28.9375 47.691406 C 29.226562 47.664062 29.386719 47.742188 29.28125 47.820312 Z M 23.832031 50.058594 C 25.023438 50.640625 26.160156 51.058594 26.371094 50.980469 C 26.582031 50.902344 26.6875 50.929688 26.609375 51.035156 C 26.398438 51.375 30.578125 52.851562 32.535156 53.167969 C 33.488281 53.296875 36.449219 53.507812 39.148438 53.613281 C 44.277344 53.800781 45.019531 54.195312 40.335938 54.21875 C 37.136719 54.246094 29.652344 53.191406 27.242188 52.402344 C 25.285156 51.746094 21.160156 49.875 21.160156 49.636719 C 21.160156 49.558594 21.769531 49.796875 22.507812 50.164062 C 24.070312 50.980469 25.128906 51.375 25.128906 51.21875 C 25.128906 51.140625 24.203125 50.613281 23.089844 50.058594 C 21.953125 49.480469 21.1875 49.007812 21.371094 48.980469 C 21.558594 48.980469 22.667969 49.453125 23.832031 50.058594 Z M 24.070312 49.242188 C 24.070312 49.375 23.964844 49.507812 23.804688 49.507812 C 23.671875 49.507812 23.539062 49.375 23.539062 49.242188 C 23.539062 49.085938 23.671875 48.980469 23.804688 48.980469 C 23.964844 48.980469 24.070312 49.085938 24.070312 49.242188 Z M 37.769531 50.453125 C 37.71875 50.824219 37.453125 50.953125 36.820312 50.953125 C 35.789062 50.953125 35.761719 50.769531 36.6875 50.035156 C 37.453125 49.453125 37.929688 49.636719 37.769531 50.453125 Z M 51.417969 50.480469 C 52.902344 50.769531 51.3125 51.007812 48.828125 50.875 C 46.683594 50.769531 46.5 50.71875 46.976562 50.375 C 47.480469 50.007812 49.199219 50.058594 51.417969 50.480469 Z M 38.804688 50.746094 C 38.566406 50.980469 38.300781 51.113281 38.195312 51.035156 C 37.929688 50.769531 38.351562 50.296875 38.828125 50.296875 C 39.226562 50.296875 39.226562 50.324219 38.804688 50.746094 Z M 59.59375 50.746094 C 59.25 50.796875 58.667969 50.796875 58.269531 50.746094 C 57.847656 50.691406 58.136719 50.640625 58.851562 50.640625 C 59.59375 50.640625 59.910156 50.691406 59.59375 50.746094 Z M 40.46875 51.085938 C 40.46875 51.21875 40.335938 51.351562 40.179688 51.351562 C 40.046875 51.351562 39.992188 51.21875 40.074219 51.085938 C 40.152344 50.929688 40.285156 50.824219 40.363281 50.824219 C 40.417969 50.824219 40.46875 50.929688 40.46875 51.085938 Z M 39.015625 51.351562 C 38.933594 51.480469 38.695312 51.613281 38.539062 51.613281 C 38.351562 51.613281 38.378906 51.507812 38.617188 51.351562 C 39.121094 51.035156 39.226562 51.035156 39.015625 51.351562 Z M 30.550781 51.875 C 32.480469 52.296875 33.195312 52.796875 31.476562 52.535156 C 30.816406 52.429688 29.808594 52.113281 29.226562 51.851562 C 28.644531 51.5625 28.355469 51.375 28.566406 51.457031 C 28.777344 51.507812 29.675781 51.691406 30.550781 51.875 Z M 42.851562 51.71875 C 42.851562 51.769531 42.664062 51.902344 42.425781 51.980469 C 42.214844 52.0625 42.109375 52.035156 42.1875 51.875 C 42.347656 51.613281 42.851562 51.507812 42.851562 51.71875 Z M 42.851562 51.71875 "/>
<path style=" stroke:none;fill-rule:nonzero;fill:rgb(0%,0%,0%);fill-opacity:1;" d="M 19.574219 11.191406 C 19.070312 11.796875 19.363281 11.875 20.074219 11.296875 C 20.5 10.953125 20.550781 10.796875 20.289062 10.796875 C 20.074219 10.796875 19.757812 10.980469 19.574219 11.191406 Z M 19.574219 11.191406 "/>
<path style=" stroke:none;fill-rule:nonzero;fill:rgb(0%,0%,0%);fill-opacity:1;" d="M 12.140625 12.375 L 11.507812 12.902344 L 12.457031 12.507812 C 12.988281 12.324219 13.648438 12.191406 13.964844 12.269531 C 14.257812 12.351562 14.734375 12.296875 14.996094 12.140625 C 15.367188 11.929688 15.210938 11.875 14.125 11.851562 C 13.121094 11.851562 12.589844 12.007812 12.140625 12.375 Z M 12.140625 12.375 "/>
<path style=" stroke:none;fill-rule:nonzero;fill:rgb(0%,0%,0%);fill-opacity:1;" d="M 10.183594 13.191406 C 9.917969 13.589844 10.183594 13.746094 10.898438 13.640625 L 11.507812 13.5625 L 10.925781 13.21875 C 10.527344 13.007812 10.289062 12.980469 10.183594 13.191406 Z M 10.183594 13.191406 "/>
<path style=" stroke:none;fill-rule:nonzero;fill:rgb(0%,0%,0%);fill-opacity:1;" d="M 8.992188 13.957031 C 8.542969 14.21875 8.570312 14.273438 9.734375 14.851562 C 10.421875 15.195312 10.582031 15.21875 10.582031 14.929688 C 10.582031 14.589844 9.785156 13.691406 9.496094 13.691406 C 9.441406 13.691406 9.203125 13.796875 8.992188 13.957031 Z M 8.992188 13.957031 "/>
<path style=" stroke:none;fill-rule:nonzero;fill:rgb(0%,0%,0%);fill-opacity:1;" d="M 19.996094 17.167969 C 19.757812 18.089844 19.8125 19.433594 20.074219 19.617188 C 20.445312 19.828125 21.160156 18.671875 21.132812 17.90625 C 21.082031 17.300781 21.082031 17.300781 20.976562 17.828125 C 20.921875 18.171875 20.761719 18.433594 20.632812 18.433594 C 20.5 18.433594 20.5 18.089844 20.632812 17.667969 C 20.84375 16.933594 20.761719 16.589844 20.339844 16.589844 C 20.261719 16.589844 20.101562 16.851562 19.996094 17.167969 Z M 19.996094 17.167969 "/>
<path style=" stroke:none;fill-rule:nonzero;fill:rgb(0%,0%,0%);fill-opacity:1;" d="M 12.90625 19.90625 C 13.011719 20.488281 13.859375 21.328125 14.308594 21.328125 C 14.734375 21.328125 14.175781 20.304688 13.515625 19.800781 L 12.777344 19.277344 Z M 12.90625 19.90625 "/>
<path style=" stroke:none;fill-rule:nonzero;fill:rgb(0%,0%,0%);fill-opacity:1;" d="M 14.285156 19.488281 C 14.285156 19.617188 14.414062 19.75 14.574219 19.75 C 14.707031 19.75 14.757812 19.617188 14.679688 19.488281 C 14.601562 19.328125 14.46875 19.222656 14.390625 19.222656 C 14.335938 19.222656 14.285156 19.328125 14.285156 19.488281 Z M 14.285156 19.488281 "/>
<path style=" stroke:none;fill-rule:nonzero;fill:rgb(0%,0%,0%);fill-opacity:1;" d="M 11.691406 21.855469 C 11.769531 22.304688 13.59375 23.277344 14.070312 23.121094 C 14.257812 23.042969 13.914062 22.671875 13.359375 22.277344 C 12.539062 21.699219 12.457031 21.566406 12.960938 21.726562 C 14.574219 22.144531 14.679688 22.144531 13.992188 21.75 C 13.09375 21.226562 11.585938 21.304688 11.691406 21.855469 Z M 11.691406 21.855469 "/>
<path style=" stroke:none;fill-rule:nonzero;fill:rgb(0%,0%,0%);fill-opacity:1;" d="M 11.320312 22.910156 C 12.195312 23.699219 12.695312 23.910156 12.695312 23.464844 C 12.695312 23.199219 11.054688 22.121094 10.6875 22.121094 C 10.554688 22.121094 10.84375 22.488281 11.320312 22.910156 Z M 11.320312 22.910156 "/>
<path style=" stroke:none;fill-rule:nonzero;fill:rgb(0%,0%,0%);fill-opacity:1;" d="M 10.660156 23.226562 C 10.84375 23.777344 10.582031 23.859375 10.105469 23.382812 C 9.917969 23.199219 9.785156 23.171875 9.785156 23.332031 C 9.785156 23.488281 10.15625 23.9375 10.582031 24.359375 C 11.164062 24.910156 11.453125 25.042969 11.664062 24.832031 C 12.085938 24.410156 11.851562 23.671875 11.109375 23.199219 C 10.527344 22.804688 10.472656 22.804688 10.660156 23.226562 Z M 10.660156 23.226562 "/>
<path style=" stroke:none;fill-rule:nonzero;fill:rgb(0%,0%,0%);fill-opacity:1;" d="M 12.960938 24.488281 C 12.960938 24.621094 13.09375 24.753906 13.25 24.753906 C 13.382812 24.753906 13.4375 24.621094 13.359375 24.488281 C 13.277344 24.332031 13.144531 24.226562 13.066406 24.226562 C 13.011719 24.226562 12.960938 24.332031 12.960938 24.488281 Z M 12.960938 24.488281 "/>
<path style=" stroke:none;fill-rule:nonzero;fill:rgb(0%,0%,0%);fill-opacity:1;" d="M 18.964844 24.648438 C 18.382812 25.253906 19.070312 28.175781 19.8125 28.175781 C 20.128906 28.175781 20.367188 27.148438 20.074219 26.964844 C 19.945312 26.886719 19.917969 26.542969 19.996094 26.175781 C 20.101562 25.78125 20.050781 25.542969 19.863281 25.542969 C 19.679688 25.542969 19.46875 25.304688 19.363281 25.015625 C 19.257812 24.699219 19.070312 24.542969 18.964844 24.648438 Z M 18.964844 24.648438 "/>
<path style=" stroke:none;fill-rule:nonzero;fill:rgb(0%,0%,0%);fill-opacity:1;" d="M 20.921875 24.910156 C 20.921875 25.199219 21 25.28125 21.082031 25.070312 C 21.160156 24.886719 21.132812 24.648438 21.054688 24.570312 C 20.976562 24.464844 20.894531 24.621094 20.921875 24.910156 Z M 20.921875 24.910156 "/>
<path style=" stroke:none;fill-rule:nonzero;fill:rgb(0%,0%,0%);fill-opacity:1;" d="M 21.453125 25.175781 C 21.453125 25.464844 21.53125 25.542969 21.609375 25.332031 C 21.6875 25.148438 21.664062 24.910156 21.582031 24.832031 C 21.503906 24.726562 21.425781 24.886719 21.453125 25.175781 Z M 21.453125 25.175781 "/>
<path style=" stroke:none;fill-rule:nonzero;fill:rgb(0%,0%,0%);fill-opacity:1;" d="M 14.019531 25.199219 C 14.019531 25.386719 14.257812 26.175781 14.574219 26.964844 C 15.050781 28.28125 15.183594 28.414062 15.871094 28.359375 C 16.265625 28.335938 16.558594 28.253906 16.503906 28.203125 C 16.453125 28.148438 16.53125 27.941406 16.691406 27.753906 C 16.902344 27.519531 16.714844 27.148438 15.976562 26.332031 C 14.890625 25.148438 14.652344 25.121094 15.050781 26.175781 C 15.445312 27.175781 15.183594 27.019531 14.574219 25.859375 C 14.285156 25.332031 14.046875 25.015625 14.019531 25.199219 Z M 14.019531 25.199219 "/>
<path style=" stroke:none;fill-rule:nonzero;fill:rgb(0%,0%,0%);fill-opacity:1;" d="M 13.488281 26.570312 C 13.488281 26.726562 13.621094 26.914062 13.753906 26.992188 C 13.914062 27.070312 14.019531 26.964844 14.019531 26.753906 C 14.019531 26.519531 13.914062 26.332031 13.753906 26.332031 C 13.621094 26.332031 13.488281 26.4375 13.488281 26.570312 Z M 13.488281 26.570312 "/>
<path style=" stroke:none;fill-rule:nonzero;fill:rgb(0%,0%,0%);fill-opacity:1;" d="M 23.011719 32.707031 C 23.011719 32.890625 23.144531 33.234375 23.277344 33.441406 C 23.488281 33.757812 23.539062 33.679688 23.539062 33.101562 C 23.539062 32.707031 23.433594 32.390625 23.277344 32.390625 C 23.144531 32.390625 23.011719 32.546875 23.011719 32.707031 Z M 23.011719 32.707031 "/>
<path style=" stroke:none;fill-rule:nonzero;fill:rgb(0%,0%,0%);fill-opacity:1;" d="M 26.054688 38.183594 C 26.132812 38.316406 26.265625 38.445312 26.34375 38.445312 C 26.398438 38.445312 26.449219 38.316406 26.449219 38.183594 C 26.449219 38.023438 26.316406 37.921875 26.160156 37.921875 C 26.027344 37.921875 25.972656 38.023438 26.054688 38.183594 Z M 26.054688 38.183594 "/>
<path style=" stroke:none;fill-rule:nonzero;fill:rgb(0%,0%,0%);fill-opacity:1;" d="M 27.507812 40.105469 C 27.507812 40.5 28.328125 41.871094 28.566406 41.871094 C 28.726562 41.871094 28.832031 41.765625 28.832031 41.632812 C 28.832031 41.316406 27.535156 39.816406 27.507812 40.105469 Z M 27.507812 40.105469 "/>
<path style=" stroke:none;fill-rule:nonzero;fill:rgb(0%,0%,0%);fill-opacity:1;" d="M 17.113281 59.511719 C 16.265625 59.910156 15.5 60.328125 15.394531 60.410156 C 15.316406 60.515625 15.683594 60.933594 16.214844 61.382812 L 17.191406 62.171875 L 17.191406 77.15625 L 16.53125 77.578125 C 16.160156 77.816406 15.871094 78.183594 15.871094 78.367188 C 15.871094 78.65625 16.503906 78.738281 18.914062 78.738281 C 21.714844 78.738281 21.953125 78.710938 21.953125 78.238281 C 21.953125 77.867188 21.6875 77.683594 21.027344 77.578125 C 20.527344 77.472656 19.996094 77.183594 19.835938 76.894531 C 19.679688 76.605469 19.574219 73.023438 19.574219 67.570312 C 19.574219 57.484375 19.785156 58.195312 17.113281 59.511719 Z M 17.113281 59.511719 "/>
<path style=" stroke:none;fill-rule:nonzero;fill:rgb(0%,0%,0%);fill-opacity:1;" d="M 49.277344 59.59375 C 48.351562 60.039062 47.609375 60.488281 47.609375 60.59375 C 47.609375 60.699219 48.007812 61.015625 48.511719 61.304688 C 49.304688 61.777344 49.4375 62.015625 49.59375 63.253906 C 49.699219 64.015625 49.726562 67.414062 49.675781 70.785156 L 49.59375 76.917969 L 48.722656 77.628906 C 48.246094 78.027344 47.929688 78.445312 48.035156 78.550781 C 48.273438 78.789062 54.066406 78.789062 54.304688 78.550781 C 54.59375 78.261719 53.933594 77.683594 53.269531 77.683594 C 52.34375 77.683594 51.84375 77 51.84375 75.707031 C 51.84375 74.839844 52 74.390625 52.425781 73.996094 C 52.742188 73.707031 53.085938 73.46875 53.164062 73.46875 C 53.269531 73.46875 54.144531 74.523438 55.097656 75.8125 C 57.292969 78.789062 57.554688 78.949219 59.910156 78.761719 C 62.105469 78.578125 62.398438 78.050781 60.597656 77.523438 C 59.964844 77.339844 59.039062 76.789062 58.535156 76.3125 C 57.53125 75.367188 55.28125 72.363281 55.28125 71.96875 C 55.28125 71.601562 56.894531 70.152344 57.847656 69.679688 C 58.324219 69.441406 59.144531 69.152344 59.699219 69.046875 C 60.332031 68.914062 60.730469 68.675781 60.785156 68.386719 C 60.863281 67.992188 60.546875 67.941406 57.953125 67.886719 C 56.339844 67.886719 54.886719 67.859375 54.699219 67.835938 C 54.011719 67.78125 54.222656 68.492188 54.992188 68.757812 C 55.441406 68.914062 55.8125 69.175781 55.8125 69.335938 C 55.8125 69.703125 52.558594 72.417969 52.132812 72.417969 C 51.921875 72.417969 51.84375 70.285156 51.84375 65.570312 C 51.84375 57.695312 52.054688 58.195312 49.277344 59.59375 Z M 49.277344 59.59375 "/>
<path style=" stroke:none;fill-rule:nonzero;fill:rgb(0%,0%,0%);fill-opacity:1;" d="M 0.265625 60.621094 C 0.265625 60.882812 0.398438 61.09375 0.527344 61.09375 C 0.6875 61.09375 1.109375 61.382812 1.453125 61.75 L 2.117188 62.382812 L 2.117188 69.386719 C 2.117188 73.839844 2.011719 76.605469 1.824219 76.917969 C 1.691406 77.210938 1.269531 77.550781 0.898438 77.683594 C 0.554688 77.816406 0.265625 78.105469 0.265625 78.289062 C 0.265625 78.550781 1.03125 78.632812 3.835938 78.65625 C 7.195312 78.683594 7.40625 78.65625 7.40625 78.183594 C 7.40625 77.839844 7.222656 77.683594 6.769531 77.683594 C 6.402344 77.683594 5.820312 77.578125 5.449219 77.421875 L 4.761719 77.15625 L 4.761719 70.046875 L 6.558594 70.046875 C 8.515625 70.046875 8.835938 70.230469 9.46875 71.707031 C 9.945312 72.8125 10.316406 72.546875 10.316406 71.125 C 10.316406 70.441406 10.394531 69.125 10.472656 68.230469 C 10.660156 66.703125 10.632812 66.625 10.078125 66.625 C 9.679688 66.625 9.523438 66.78125 9.523438 67.203125 C 9.523438 68.257812 9.179688 68.441406 6.929688 68.625 L 4.761719 68.808594 L 4.761719 61.621094 L 7.484375 61.621094 C 10.421875 61.621094 10.765625 61.777344 11.613281 63.382812 C 12.140625 64.410156 12.695312 64.148438 12.695312 62.832031 C 12.695312 62.199219 12.777344 61.355469 12.855469 60.933594 L 13.011719 60.171875 L 6.640625 60.171875 C 0.742188 60.171875 0.265625 60.199219 0.265625 60.621094 Z M 0.265625 60.621094 "/>
<path style=" stroke:none;fill-rule:nonzero;fill:rgb(0%,0%,0%);fill-opacity:1;" d="M 27.164062 68.070312 C 25.605469 68.652344 24.597656 69.46875 24.597656 70.179688 C 24.597656 71.546875 26.609375 71.257812 27.375 69.808594 C 27.824219 68.886719 28.355469 68.675781 29.203125 68.992188 C 30.046875 69.308594 30.417969 70.019531 30.417969 71.335938 C 30.417969 72.496094 30.734375 72.285156 27.136719 73.363281 C 26.210938 73.65625 25.234375 74.179688 24.679688 74.707031 C 23.832031 75.472656 23.753906 75.683594 23.886719 76.523438 C 24.28125 78.949219 26.210938 79.5 29.546875 78.183594 C 30.285156 77.894531 30.472656 77.894531 30.894531 78.289062 C 31.582031 78.921875 32.824219 78.84375 33.855469 78.132812 C 34.992188 77.394531 34.941406 77.050781 33.671875 76.894531 L 32.667969 76.761719 L 32.535156 72.734375 C 32.402344 68.863281 32.375 68.652344 31.765625 68.175781 C 31.027344 67.570312 28.699219 67.519531 27.164062 68.070312 Z M 30.417969 75.15625 C 30.417969 76.8125 30.101562 77.15625 28.488281 77.339844 C 27.058594 77.5 26.371094 76.972656 26.503906 75.734375 C 26.554688 75.078125 26.792969 74.8125 27.773438 74.3125 C 28.40625 73.996094 29.28125 73.734375 29.675781 73.734375 C 30.390625 73.734375 30.417969 73.785156 30.417969 75.15625 Z M 30.417969 75.15625 "/>
<path style=" stroke:none;fill-rule:nonzero;fill:rgb(0%,0%,0%);fill-opacity:1;" d="M 38.933594 68.125 C 37.453125 68.835938 36.871094 70.703125 37.664062 72.152344 C 37.902344 72.546875 39.039062 73.339844 40.523438 74.128906 C 42.769531 75.339844 42.980469 75.523438 43.0625 76.289062 C 43.167969 77.367188 42.453125 77.789062 40.679688 77.628906 C 39.621094 77.523438 39.199219 77.316406 38.351562 76.5 C 37.109375 75.285156 36.660156 75.445312 36.84375 77.078125 C 36.898438 77.710938 37.03125 78.289062 37.109375 78.367188 C 37.425781 78.710938 41 79.050781 42.1875 78.894531 C 43.167969 78.738281 43.695312 78.472656 44.382812 77.789062 C 45.230469 76.945312 45.285156 76.789062 45.175781 75.550781 C 45.019531 73.890625 44.648438 73.523438 41.792969 72.101562 C 39.730469 71.046875 39.542969 70.890625 39.464844 70.097656 C 39.386719 69.386719 39.492188 69.203125 40.125 68.96875 C 41.210938 68.546875 42.320312 68.886719 43.40625 69.941406 C 43.988281 70.496094 44.515625 70.808594 44.703125 70.703125 C 45.125 70.441406 44.78125 68.441406 44.226562 67.992188 C 43.589844 67.519531 40.019531 67.597656 38.933594 68.125 Z M 38.933594 68.125 "/>
</g>
</svg>
