<?xml version="1.0" encoding="UTF-8"?>
<svg xmlns="http://www.w3.org/2000/svg" xmlns:xlink="http://www.w3.org/1999/xlink" width="100px" height="58px" viewBox="0 0 99 58" version="1.1">
<g id="surface1">
<path style=" stroke:none;fill-rule:nonzero;fill:rgb(100%,29.411765%,29.411765%);fill-opacity:1;" d="M 49.519531 20.140625 L 44.75 17.613281 L 36.464844 13.226562 C 36.457031 13.21875 36.441406 13.21875 36.433594 13.21875 C 36.132812 13.074219 35.820312 13.378906 35.933594 13.679688 L 40.15625 24.46875 C 40.160156 24.480469 40.164062 24.492188 40.167969 24.5 C 40.34375 24.902344 40.722656 25.152344 41.132812 25.25 C 41.167969 25.257812 41.191406 25.265625 41.234375 25.273438 C 41.277344 25.28125 41.332031 25.292969 41.382812 25.296875 C 41.390625 25.300781 41.398438 25.300781 41.40625 25.300781 L 41.414062 25.300781 C 41.417969 25.300781 41.425781 25.300781 41.433594 25.300781 L 41.441406 25.300781 C 41.445312 25.300781 41.453125 25.300781 41.457031 25.300781 L 41.464844 25.300781 C 41.472656 25.300781 41.480469 25.300781 41.484375 25.300781 C 46.832031 25.886719 52.222656 25.886719 57.570312 25.300781 C 57.632812 25.300781 57.695312 25.300781 57.757812 25.292969 C 57.777344 25.292969 57.796875 25.289062 57.816406 25.285156 C 57.816406 25.285156 57.820312 25.285156 57.824219 25.285156 C 57.835938 25.285156 57.847656 25.28125 57.859375 25.277344 C 57.878906 25.277344 57.898438 25.273438 57.917969 25.269531 C 57.957031 25.261719 57.972656 25.253906 58.023438 25.238281 C 58.074219 25.21875 58.160156 25.1875 58.214844 25.164062 C 58.265625 25.136719 58.304688 25.113281 58.347656 25.085938 C 58.402344 25.050781 58.457031 25.015625 58.507812 24.972656 C 58.53125 24.957031 58.546875 24.945312 58.566406 24.929688 L 58.554688 24.925781 Z M 49.519531 20.140625 "/>
<path style=" stroke:none;fill-rule:nonzero;fill:rgb(49.019608%,20.784314%,23.137255%);fill-opacity:1;" d="M 62.589844 13.226562 L 62.582031 13.226562 L 54.296875 17.613281 L 58.902344 24.488281 L 63.113281 13.679688 L 63.113281 13.667969 C 63.21875 13.347656 62.894531 13.058594 62.589844 13.226562 "/>
<path style=" stroke:none;fill-rule:nonzero;fill:rgb(74.117647%,25.098039%,26.27451%);fill-opacity:1;" d="M 49.960938 11.140625 C 49.75 10.832031 49.289062 10.832031 49.085938 11.140625 L 44.75 17.613281 L 49.519531 20.140625 L 58.566406 24.929688 C 58.621094 24.875 58.667969 24.820312 58.714844 24.761719 C 58.785156 24.679688 58.847656 24.585938 58.902344 24.488281 L 54.296875 17.613281 Z M 49.960938 11.140625 "/>
<path style=" stroke:none;fill-rule:nonzero;fill:rgb(14.901961%,15.294118%,18.823529%);fill-opacity:1;" d="M 19.390625 36.117188 L 21.0625 36.117188 C 20.984375 33.964844 19.003906 32.355469 16.25 32.355469 C 13.523438 32.355469 11.382812 33.945312 11.382812 36.339844 C 11.382812 38.261719 12.773438 39.40625 14.996094 40.046875 L 16.75 40.546875 C 18.25 40.964844 19.585938 41.496094 19.585938 42.917969 C 19.585938 44.476562 18.085938 45.507812 16.109375 45.507812 C 14.414062 45.507812 12.910156 44.757812 12.773438 43.140625 L 10.992188 43.140625 C 11.160156 45.480469 13.050781 47.070312 16.109375 47.070312 C 19.390625 47.070312 21.253906 45.257812 21.253906 42.945312 C 21.253906 40.269531 18.722656 39.40625 17.25 39.015625 L 15.804688 38.625 C 14.746094 38.347656 13.050781 37.789062 13.050781 36.257812 C 13.050781 34.890625 14.300781 33.886719 16.191406 33.886719 C 17.917969 33.886719 19.226562 34.710938 19.390625 36.117188 Z M 28.121094 36.117188 L 25.839844 36.117188 L 25.839844 33.554688 L 24.199219 33.554688 L 24.199219 36.117188 L 22.585938 36.117188 L 22.585938 37.511719 L 24.199219 37.511719 L 24.199219 44.199219 C 24.199219 46.066406 25.703125 46.957031 27.09375 46.957031 C 27.703125 46.957031 28.09375 46.847656 28.316406 46.761719 L 27.984375 45.285156 C 27.84375 45.3125 27.621094 45.371094 27.261719 45.371094 C 26.535156 45.371094 25.839844 45.144531 25.839844 43.753906 L 25.839844 37.511719 L 28.121094 37.511719 Z M 30.199219 46.816406 L 31.839844 46.816406 L 31.839844 40.046875 C 31.839844 38.597656 32.980469 37.539062 34.539062 37.539062 C 34.976562 37.539062 35.429688 37.621094 35.539062 37.648438 L 35.539062 35.976562 C 35.351562 35.964844 34.921875 35.949219 34.675781 35.949219 C 33.398438 35.949219 32.285156 36.675781 31.894531 37.734375 L 31.785156 37.734375 L 31.785156 36.117188 L 30.199219 36.117188 Z M 41.246094 47.042969 C 43.414062 47.042969 45 45.953125 45.503906 44.339844 L 43.917969 43.890625 C 43.5 45.007812 42.53125 45.5625 41.246094 45.5625 C 39.320312 45.5625 37.992188 44.316406 37.914062 42.023438 L 45.667969 42.023438 L 45.667969 41.328125 C 45.667969 37.34375 43.304688 35.976562 41.078125 35.976562 C 38.1875 35.976562 36.265625 38.261719 36.265625 41.550781 C 36.265625 44.839844 38.160156 47.042969 41.246094 47.042969 Z M 37.914062 40.605469 C 38.027344 38.9375 39.203125 37.457031 41.078125 37.457031 C 42.859375 37.457031 44 38.792969 44 40.605469 Z M 50.917969 47.070312 C 52.78125 47.070312 53.753906 46.066406 54.085938 45.371094 L 54.171875 45.371094 L 54.171875 46.816406 L 55.8125 46.816406 L 55.8125 39.769531 C 55.8125 36.367188 53.226562 35.976562 51.863281 35.976562 C 50.25 35.976562 48.414062 36.535156 47.578125 38.484375 L 49.136719 39.042969 C 49.5 38.261719 50.355469 37.425781 51.917969 37.425781 C 53.425781 37.425781 54.171875 38.226562 54.171875 39.601562 L 54.171875 39.65625 C 54.171875 40.449219 53.363281 40.382812 51.417969 40.632812 C 49.4375 40.890625 47.273438 41.328125 47.273438 43.78125 C 47.273438 45.871094 48.886719 47.070312 50.917969 47.070312 Z M 51.167969 45.59375 C 49.859375 45.59375 48.914062 45.007812 48.914062 43.863281 C 48.914062 42.609375 50.054688 42.21875 51.335938 42.054688 C 52.03125 41.96875 53.894531 41.773438 54.171875 41.441406 L 54.171875 42.945312 C 54.171875 44.28125 53.113281 45.59375 51.167969 45.59375 Z M 58.414062 46.816406 L 60.058594 46.816406 L 60.058594 40.128906 C 60.058594 38.5625 61.199219 37.457031 62.476562 37.457031 C 63.722656 37.457031 64.589844 38.269531 64.589844 39.488281 L 64.589844 46.816406 L 66.261719 46.816406 L 66.261719 39.851562 C 66.261719 38.472656 67.121094 37.457031 68.625 37.457031 C 69.792969 37.457031 70.792969 38.074219 70.792969 39.65625 L 70.792969 46.816406 L 72.433594 46.816406 L 72.433594 39.65625 C 72.433594 37.140625 71.085938 35.976562 69.179688 35.976562 C 67.652344 35.976562 66.53125 36.683594 65.980469 37.789062 L 65.871094 37.789062 C 65.34375 36.648438 64.410156 35.976562 63.003906 35.976562 C 61.613281 35.976562 60.585938 36.648438 60.140625 37.789062 L 60 37.789062 L 60 36.117188 L 58.414062 36.117188 Z M 76.683594 32.550781 L 75.042969 32.550781 L 75.042969 46.816406 L 76.683594 46.816406 Z M 79.300781 46.816406 L 80.941406 46.816406 L 80.941406 36.117188 L 79.300781 36.117188 Z M 80.132812 34.335938 C 80.773438 34.335938 81.300781 33.832031 81.300781 33.21875 C 81.300781 32.605469 80.773438 32.105469 80.132812 32.105469 C 79.492188 32.105469 78.964844 32.605469 78.964844 33.21875 C 78.964844 33.832031 79.492188 34.335938 80.132812 34.335938 Z M 88.199219 36.117188 L 85.917969 36.117188 L 85.917969 33.554688 L 84.277344 33.554688 L 84.277344 36.117188 L 82.664062 36.117188 L 82.664062 37.511719 L 84.277344 37.511719 L 84.277344 44.199219 C 84.277344 46.066406 85.78125 46.957031 87.171875 46.957031 C 87.78125 46.957031 88.171875 46.847656 88.394531 46.761719 L 88.058594 45.285156 C 87.921875 45.3125 87.699219 45.371094 87.335938 45.371094 C 86.613281 45.371094 85.917969 45.144531 85.917969 43.753906 L 85.917969 37.511719 L 88.199219 37.511719 Z M 88.199219 36.117188 "/>
</g>
</svg>
